<svg width="50" height="50" viewBox="0 0 50 50" fill="none"
  xmlns="http://www.w3.org/2000/svg">
  <path d="M22.6 47.76C17.296 47.168 12.592 44.912 8.83998 41.16C3.53598 35.864 1.19198 28.472 2.44798 21.056C3.70398 13.608 8.69598 7.18397 15.656 4.03197C16.968 3.43997 18.952 2.79997 20.344 2.51997C28.056 0.96797 35.744 3.26397 41.24 8.75997C44.808 12.328 46.96 16.64 47.76 21.8C47.936 22.944 48 25.664 47.888 26.92C47.384 32.416 45.096 37.32 41.24 41.16C37.392 45 32.576 47.264 27.128 47.792C25.984 47.904 23.76 47.888 22.6 47.76ZM32.168 34.6C35.824 32.16 38.88 30.072 38.968 29.96C39.112 29.768 39.12 29.576 39.12 24.96C39.12 20.344 39.112 20.152 38.968 19.96C38.88 19.848 35.824 17.76 32.168 15.32L25.52 10.88H25.04H24.56L17.912 15.32C14.256 17.76 11.2 19.848 11.112 19.96C10.968 20.152 10.96 20.344 10.96 24.96C10.96 29.584 10.968 29.768 11.112 29.96C11.248 30.136 24.216 38.848 24.592 39.016C24.664 39.048 24.904 39.064 25.12 39.056C25.504 39.032 25.832 38.816 32.168 34.6Z" fill="black"/>
  <path d="M19.056 32.48C16.464 30.752 14.352 29.304 14.368 29.272C14.384 29.184 18.432 26.44 18.536 26.44C18.576 26.44 19.792 27.232 21.24 28.2L23.88 29.968V32.8C23.88 34.36 23.856 35.64 23.824 35.632C23.784 35.632 21.64 34.216 19.056 32.48Z" fill="black"/>
  <path d="M26.2001 32.808V29.968L28.8481 28.2C30.4961 27.096 31.5361 26.448 31.6161 26.472C31.9041 26.584 35.8001 29.272 35.7441 29.328C35.6321 29.424 26.2801 35.64 26.2401 35.64C26.2161 35.64 26.2001 34.368 26.2001 32.808Z" fill="black"/>
  <path d="M22.968 26.472C21.832 25.712 20.864 25.056 20.824 25.016C20.768 24.96 21.448 24.464 22.888 23.496L25.04 22.064L27.112 23.448C28.248 24.208 29.216 24.864 29.256 24.904C29.312 24.96 28.632 25.456 27.192 26.424L25.04 27.856L22.968 26.472Z" fill="black"/>
  <path d="M13.3201 24.96V22.92L14.7841 23.888C15.5841 24.424 16.2641 24.888 16.3041 24.92C16.3361 24.944 15.6801 25.432 14.8401 25.984L13.3201 27V24.96Z" fill="black"/>
  <path d="M35.256 26.008C34.456 25.464 33.784 25.008 33.76 24.984C33.736 24.96 34.4 24.488 35.24 23.936L36.76 22.92V24.96C36.76 26.08 36.752 27 36.744 26.992C36.728 26.992 36.064 26.544 35.256 26.008Z" fill="black"/>
  <path d="M16.368 22.064C15.216 21.288 14.304 20.632 14.336 20.6C14.448 20.496 23.8 14.28 23.84 14.28C23.864 14.28 23.88 15.56 23.88 17.12V19.96L21.24 21.72C19.792 22.688 18.568 23.48 18.536 23.48C18.496 23.48 17.528 22.848 16.368 22.064Z" fill="black"/>
  <path d="M28.8241 21.72L26.2001 19.96V17.12C26.2001 15.56 26.2161 14.28 26.2401 14.28C26.2801 14.28 35.6321 20.496 35.7441 20.6C35.8081 20.656 31.8001 23.4 31.5761 23.448C31.4961 23.464 30.2641 22.68 28.8241 21.72Z" fill="black"/>
</svg>
