<svg width="50" height="50" viewBox="0 0 50 50" fill="none"
  xmlns="http://www.w3.org/2000/svg">
  <path d="M6.44531 48.6328C5.29297 48.4375 4.39453 48.0469 3.37891 47.2851C0.898438 45.4687 -0.390625 41.0351 0.78125 38.3203C1.19141 37.3437 2.51953 35.9375 3.00781 35.9375C3.67188 35.918 3.73047 35.5859 3.24219 34.8633C2.08984 33.164 2.1875 31.289 3.49609 29.8242C4.00391 29.2383 4.08203 29.0625 3.80859 29.1797C3.06641 29.4531 1.5625 29.668 1.23047 29.5508C-0.351563 29.0039 -0.0195313 26.9531 1.64063 26.9531C2.57813 26.9531 3.22266 26.6797 4.33594 25.7812L5.3125 25.0195L4.74609 24.8828C2.75391 24.4531 1.34766 23.3594 0.566406 21.6211C0.15625 20.7422 0.0976562 20.3125 0.0976562 18.2617C0.0976562 15.3906 0.371094 14.5117 1.95313 12.1289C4.02344 9.04295 7.75391 5.83983 11.2305 4.21873C19.4141 0.351547 30.3906 0.312484 38.6524 4.12108C43.418 6.32811 47.8906 10.664 49.4336 14.6094C49.8242 15.5469 49.8828 16.0937 49.9024 18.164C49.9024 20.3906 49.8633 20.7031 49.3945 21.6992C48.5547 23.4961 47.3047 24.4531 45.2539 24.9023L44.6875 25.0195L45.5469 25.6836C46.6602 26.582 47.4805 26.9531 48.3203 26.9531C50.0195 26.9531 50.3711 28.9844 48.7695 29.5508C48.4375 29.668 46.9336 29.4531 46.1914 29.1797C45.918 29.0625 45.9961 29.2383 46.5039 29.8242C47.8125 31.289 47.9102 33.164 46.7578 34.8633C46.25 35.6055 46.3281 35.918 47.0313 35.9375C47.168 35.9375 47.6953 36.3476 48.2031 36.875C49.2969 37.9687 49.668 38.9844 49.6484 40.8203C49.6094 44.1601 47.6953 47.1484 44.8828 48.3008L43.8477 48.7305L25.5859 48.75C15.5469 48.7695 6.9336 48.7109 6.44531 48.6328ZM43.8281 45.8789C45.0195 45.5469 46.1914 44.2383 46.6602 42.6758C47.1484 41.1133 47.1875 40.039 46.7774 39.2578C46.1328 38.0273 47.3242 38.0859 25 38.0859C2.67578 38.0859 3.86719 38.0273 3.22266 39.2578C2.51953 40.6055 3.22266 43.457 4.58984 44.8242C5.05859 45.293 5.72266 45.7617 6.09375 45.8789C7.03125 46.1523 42.8516 46.1523 43.8281 45.8789ZM9.35547 28.3398L13.125 28.2226L12.3828 27.6172C11.1523 26.6406 10.4688 26.3672 9.23828 26.3672C8.45703 26.3672 7.91016 26.4844 7.46094 26.7578C6.5625 27.3047 4.70703 28.8086 5.17578 28.6133C5.39063 28.5156 7.26563 28.3984 9.35547 28.3398ZM44.1602 27.9297C42.4609 26.582 41.9922 26.3672 40.7617 26.3672C39.5313 26.3672 38.6524 26.7187 37.5 27.7148L36.8164 28.3008L40.2344 28.3398C42.1094 28.3594 43.9258 28.4375 44.2383 28.5156C44.5703 28.5937 44.9024 28.6719 44.9805 28.6914C45.0781 28.6914 44.707 28.3594 44.1602 27.9297ZM27.9883 27.539C26.7773 26.582 26.2109 26.3672 24.9609 26.3672C23.8281 26.3672 22.9883 26.7187 21.9336 27.6367L21.1914 28.3008L25.0781 28.3203H28.9648L27.9883 27.539ZM18.8477 26.5625C19.2773 26.3672 19.9414 25.9375 20.3125 25.6055L20.9961 25.0195H17.1875H13.3789L14.0625 25.6055C15.5664 26.9336 17.3438 27.2851 18.8477 26.5625ZM34.6875 26.4648C35.2344 26.1914 35.8789 25.7617 36.1328 25.4883L36.582 25H32.793L29.0039 25.0195L29.6875 25.5859C31.4063 27.0312 32.9883 27.3047 34.6875 26.4648ZM45.8984 21.9726C46.2305 21.7969 46.6797 21.3086 46.9141 20.8398C47.2852 20.1562 47.3633 19.7265 47.3633 18.164C47.3633 16.5625 47.2852 16.1523 46.8359 15.1953C44.4922 10.1367 38.6133 5.99608 31.8359 4.60936C20.3711 2.26561 9.27735 5.83983 4.16016 13.5351C2.89063 15.4101 2.63672 16.25 2.63672 18.3594C2.65625 19.7461 2.73438 20.1562 3.125 20.8594C3.39844 21.3281 3.82813 21.8359 4.10156 21.9922C4.51172 22.207 8.10547 22.2461 24.9609 22.2656C42.8125 22.2656 45.4102 22.2265 45.8984 21.9726Z" fill="#666666"/>
  <path d="M10.2734 16.9727C9.57031 16.4258 9.57031 15.4102 10.2734 14.8633C10.5664 14.6289 10.9375 14.4531 11.1328 14.4531C11.7969 14.4531 12.5 15.2148 12.5 15.918C12.5 16.6211 11.7969 17.3828 11.1328 17.3828C10.9375 17.3828 10.5664 17.207 10.2734 16.9727Z" fill="#666666"/>
  <path d="M19.7266 17.1289C18.7109 16.6211 18.7695 15.0976 19.8242 14.6094C20.957 14.1015 22.1484 15.2539 21.6797 16.3867C21.5625 16.6992 21.2305 17.0312 20.9766 17.168C20.3711 17.4414 20.332 17.4414 19.7266 17.1289Z" fill="#666666"/>
  <path d="M28.9648 17.1484C27.6367 16.5039 28.1836 14.4531 29.6875 14.4531C30.2344 14.4531 31.0547 15.3125 31.0547 15.8789C31.0547 16.875 29.8633 17.5977 28.9648 17.1484Z" fill="#666666"/>
  <path d="M38.0078 16.9727C37.6367 16.6797 37.5 16.3867 37.5 15.918C37.5 15.2148 38.2031 14.4531 38.8672 14.4531C39.5313 14.4531 40.2344 15.2148 40.2344 15.918C40.2344 16.6211 39.5313 17.3828 38.8672 17.3828C38.6719 17.3828 38.3008 17.207 38.0078 16.9727Z" fill="#666666"/>
  <path d="M15.0976 10.0586C14.2578 9.47266 14.3554 8.33985 15.332 7.69532C15.7421 7.42188 15.9179 7.42188 16.4062 7.61719C17.4804 8.06641 17.6953 9.08204 16.8945 9.86329C16.3671 10.4102 15.7031 10.4883 15.0976 10.0586Z" fill="#666666"/>
  <path d="M33.1055 9.86329C32.3047 9.08204 32.5196 8.06641 33.5938 7.61719C34.0821 7.42188 34.2579 7.42188 34.668 7.69532C35.6446 8.33985 35.7422 9.47266 34.9024 10.0586C34.2969 10.4883 33.6329 10.4102 33.1055 9.86329Z" fill="#666666"/>
  <path d="M24.0235 9.76563C23.5548 9.29688 23.5157 8.45703 23.9454 7.85156C24.3556 7.24609 25.6446 7.24609 26.0548 7.85156C26.7579 8.84766 26.1524 10.1563 25.0001 10.1563C24.6681 10.1563 24.2384 9.98047 24.0235 9.76563Z" fill="#666666"/>
</svg>
