<svg width="50" height="50" viewBox="0 0 50 50" fill="none"
  xmlns="http://www.w3.org/2000/svg">
  <path d="M5.37039 44.106C3.98367 43.7651 2.94852 43.197 2.03055 42.25C1.03445 41.2273 0.721953 40.7348 0.311797 39.5227C0.0188283 38.6515 -0.000702938 37.2689 0.0383596 24.8447C0.0969533 11.2083 0.0969533 11.1326 0.526641 10.2424C1.07352 9.06817 2.59695 7.51514 3.71023 6.96589C4.19852 6.71968 5.11648 6.43559 5.76102 6.32195C7.36258 6.03786 42.636 6.03786 44.2376 6.32195C44.8821 6.43559 45.8001 6.71968 46.2884 6.96589C47.4016 7.51514 48.9251 9.06817 49.4719 10.2424C49.9016 11.1326 49.9016 11.2083 49.9602 24.8447C49.9993 37.2689 49.9798 38.6515 49.6868 39.5227C48.8469 41.947 46.9329 43.6326 44.3743 44.1629C42.8313 44.4848 6.69852 44.428 5.37039 44.106ZM44.1985 40.5265C44.511 40.3182 43.7102 39.5985 37.4016 34.2765L30.2532 28.2538L29.3352 29.0303C27.7337 30.4129 27.1087 30.6401 24.9993 30.6401C23.3001 30.6401 23.0657 30.5833 22.1868 30.0909C21.6595 29.8068 20.8977 29.2576 20.4876 28.8977L19.7259 28.2348L15.2923 31.9848C4.97977 40.697 5.42898 40.2803 5.80008 40.5454C6.28836 40.8863 43.7102 40.8863 44.1985 40.5265ZM10.468 31.7954C14.0618 28.7273 16.9915 26.1515 16.972 26.0568C16.9134 25.8863 3.98367 14.8257 3.80789 14.8257C3.7493 14.8257 3.71023 19.9015 3.71023 26.0947C3.71023 32.2879 3.7493 37.3636 3.80789 37.3636C3.86648 37.3636 6.8743 34.8636 10.468 31.7954ZM46.2493 20.5076L46.1907 14.8068L39.6282 20.356C36.0149 23.4053 33.0266 25.9621 32.9876 26.0379C32.9485 26.0947 35.8977 28.6894 39.5501 31.7954L46.1907 37.4204L46.2493 31.8144C46.2688 28.7462 46.2688 23.6515 46.2493 20.5076ZM26.718 26.9091C27.1673 26.5682 31.6204 22.8371 36.6009 18.6136C44.9602 11.5682 45.6634 10.9242 45.3704 10.6212C44.4915 9.67423 45.1555 9.71211 24.9993 9.71211C4.84305 9.71211 5.50711 9.67423 4.60867 10.6212C4.33523 10.9242 5.03836 11.5492 13.4954 18.7083C18.554 22.9886 23.0071 26.7007 23.3977 27.0038C24.4134 27.7613 25.6438 27.7235 26.718 26.9091Z" fill="#4B4B4B"/>
</svg>
