<svg width="50" height="50" viewBox="0 0 50 50" fill="none"
  xmlns="http://www.w3.org/2000/svg">
  <g clip-path="url(#clip0)">
    <path d="M19.4 42.2C17.9423 42.4708 16.4694 42.7604 15 42.3768C11.7532 41.5288 9.86004 37.4102 7.8 35H9.4C9.79132 36.3858 10.3894 36.793 11.8 37C11.3858 37.4745 11.2646 37.6414 11 38.2C11.6393 38.7924 11.8433 39.0246 12.2 39.8L14.2 39.4C13.8057 39.9914 13.8 39.8813 13.8 40.6L14.2 41H15C15.3943 40.4086 15.4 40.5187 15.4 39.8C15.7943 40.3914 15.8 40.2813 15.8 41H17.4C17.4 40.2813 17.3943 40.3914 17 39.8C17.7024 40.3709 18.1301 40.7662 19 41C19.2892 39.0705 20.1027 37.5126 21 35.8C19.3887 35.583 17.704 35.2582 16.2 34.6179C11.8379 32.7608 9.22216 27.6696 10.0491 23C10.3835 21.1116 11.6507 19.6282 12.017 17.8C12.4308 15.7344 12.1567 13.549 12.6 11.4C14.8027 11.911 16.83 13.5955 19 13.8802C21.3385 14.1872 24.161 13.3452 26.6 13.4059C28.1474 13.4444 29.8858 14.1781 31.4 13.8034C33.4788 13.2889 35.2518 11.8984 37.4 11.4C37.8433 13.549 37.5692 15.7344 37.983 17.8C38.3493 19.6282 39.6165 21.1116 39.9509 23C40.7768 27.664 38.1826 32.7548 33.8 34.5624C32.2684 35.194 30.6354 35.5796 29 35.8C30.4476 38.5664 30.5988 40.7167 30.6 43.8C30.6004 44.9436 30.2732 46.9688 31.2969 47.7884C32.3946 48.6676 34.3058 47.854 35.4 47.3828C38.9072 45.8724 42.0056 43.2004 44.328 40.2C50.7208 31.941 50.8088 18.8945 44.3884 10.6C34.7806 -1.81256 14.6205 -1.84558 5.3142 11C2.19772 15.3017 1 20.1764 1 25.4C1 28.3296 1.21372 31.0198 2.2216 33.8C4.17351 39.1842 7.996 43.7584 13 46.5832C14.3102 47.3228 17.6335 49.1892 18.9284 47.5588C19.8977 46.338 19.4 43.668 19.4 42.2Z" fill="#171516"/>
  </g>
  <defs>
    <clipPath id="clip0">
      <rect width="48" height="48" fill="white" transform="translate(1 1)"/>
    </clipPath>
  </defs>
</svg>
