<svg width="50" height="50" viewBox="0 0 50 50" fill="none"
  xmlns="http://www.w3.org/2000/svg">
  <path d="M24.5117 17.5585C22.6426 17.5583 20.752 17.1679 18.9453 16.7161C13.096 15.2534 7.28447 11.7498 3.61328 6.91401H3.41797C1.4759 10.2414 1.65014 14.5298 3.70642 17.7539C4.36628 18.7884 5.33274 19.934 6.44531 20.4882C4.79491 20.583 3.47873 19.7336 1.95312 19.3164C1.95312 22.9055 3.68286 26.2627 6.73828 28.1979C7.68707 28.7988 8.82517 29.3798 9.96094 29.4726C8.51239 30.0161 7.05364 29.7318 5.56641 29.6679C6.29355 32.8095 9.0522 35.3061 12.0117 36.3383C12.9633 36.6702 13.9492 36.7691 14.9414 36.8945C11.5351 39.3341 7.73396 40.9125 3.51562 41.0975C2.33305 41.1494 1.17718 41.2146 0 40.996C0.240053 41.3888 0.684319 41.5853 1.07422 41.8161C1.94784 42.3329 2.87685 42.8138 3.80859 43.2147C7.75607 44.9133 12.0042 45.855 16.3086 45.6873C19.4396 45.5653 22.4978 45.2363 25.4883 44.211C33.6484 41.4133 40.0963 34.9227 43.0612 26.8359C43.9379 24.4449 44.5542 21.9495 44.8077 19.414C44.896 18.5312 44.9219 17.6649 44.9219 16.7773C44.9219 16.3586 44.8306 15.8089 44.9808 15.4116C45.2163 14.7883 46.1036 14.3592 46.582 13.9286C47.7835 12.8473 49.4077 11.3835 50 9.84369C49.1341 10.0489 48.3195 10.4626 47.4609 10.7088C46.466 10.9941 45.415 11.108 44.4336 11.4062C46.2354 10.0165 48.2791 8.13721 48.6328 5.74213C47.1121 6.37527 45.7188 7.17428 44.1406 7.69518C43.6082 7.87091 42.8539 8.19292 42.2852 8.12424C41.9575 8.08467 41.734 7.81546 41.5039 7.60589C41.1377 7.27232 40.7511 6.96498 40.332 6.70031C39.0059 5.86264 37.5924 5.32334 36.0352 5.10036C31.2038 4.40856 26.3834 7.3564 24.8394 11.9921C24.2103 13.8808 24.359 15.6235 24.5117 17.5585Z" fill="black"/>
</svg>
